<svg version="1.1" id="Layer_1" xmlns="http://www.w3.org/2000/svg" xmlns:xlink="http://www.w3.org/1999/xlink" x="0px" y="0px"
	 width="100%" viewBox="0 0 776 232" enable-background="new 0 0 776 232" xml:space="preserve">
<path fill="#07417C" opacity="1.000000" stroke="none" 
	d="
M1.000000,214.000000 
	C1.000000,175.979111 1.000000,137.958206 1.371872,99.333359 
	C2.114208,98.212112 2.796090,97.703003 2.809937,97.176338 
	C3.240344,80.805702 3.659398,64.433975 3.850112,48.059734 
	C3.861861,47.051025 1.993566,46.020420 1.000000,45.000000 
	C1.000000,30.338320 1.000000,15.676641 1.000000,1.011221 
	C259.573730,1.007481 518.147461,1.007481 776.860596,1.007481 
	C776.860596,78.213867 776.860596,155.428070 776.860596,233.000000 
	C698.979492,233.000000 620.958374,233.000000 542.461914,232.718201 
	C541.983826,232.060760 541.981079,231.685120 542.402771,231.187744 
	C545.968567,230.696991 549.125732,230.429459 552.248657,229.942184 
	C570.311890,227.123825 586.093323,219.858383 597.555359,205.189484 
	C608.870667,190.708466 609.450256,173.193344 599.480408,161.483276 
	C593.130066,154.024490 584.532959,150.266098 575.246521,148.530075 
	C566.187561,146.836594 556.951538,145.983124 547.756775,145.178131 
	C544.259338,144.871933 543.374878,143.793045 544.285645,140.545822 
	C545.264648,137.055771 545.968384,133.488525 546.841736,129.742630 
	C550.964905,129.742630 554.788330,129.915222 558.591858,129.713623 
	C578.128418,128.678085 596.005920,123.165764 610.370300,109.235870 
	C618.733765,101.125328 622.666443,91.291718 620.468567,79.340477 
	C620.114197,77.413223 621.280029,74.501122 622.744751,73.067574 
	C628.862671,67.079559 635.362793,61.481930 642.706421,54.853340 
	C639.014282,54.853340 636.581543,54.853329 634.148865,54.853340 
	C612.655640,54.853439 591.159851,54.648296 569.669861,54.912758 
	C549.155334,55.165211 530.637024,60.974232 515.526123,76.086548 
	C514.841614,76.831398 514.452393,77.492233 513.973267,78.412735 
	C513.351196,79.156143 512.819092,79.639893 511.905457,80.107483 
	C508.473816,82.206169 504.992096,83.931709 502.571808,86.614738 
	C501.503815,87.798637 501.688446,91.892265 502.866211,92.991364 
	C506.524200,96.405128 506.332886,100.390144 505.816284,104.498741 
	C504.884003,111.913406 504.925568,112.143227 512.427979,114.106895 
	C513.696045,115.388672 514.469666,116.903099 515.698853,117.544952 
	C524.564026,122.174065 523.300110,129.196152 520.449585,136.661728 
	C520.392639,136.810822 520.261658,136.931641 519.819458,137.137695 
	C518.132996,138.935379 516.924561,140.787186 515.424438,142.360992 
	C512.077026,145.873001 512.252808,148.824753 516.156616,152.445755 
	C516.091858,153.537979 516.079712,154.266006 515.856384,155.160309 
	C515.460083,155.630386 515.274902,155.934189 515.089111,156.586609 
	C515.081787,157.623520 515.075134,158.311798 514.730286,159.086151 
	C513.457886,160.280228 512.677673,161.582886 511.563995,162.463974 
	C505.288300,167.429245 505.170898,169.497131 511.141418,175.308167 
	C511.168030,176.037323 511.106964,176.458862 511.172424,177.257996 
	C512.780579,178.084610 514.259521,178.912964 515.744202,178.923294 
	C528.820618,179.014175 541.898132,178.959518 555.239990,179.190002 
	C559.579529,180.146591 560.421326,182.252029 558.950378,186.094681 
	C558.268433,187.876129 558.036499,190.733841 559.013489,192.072220 
	C561.662231,195.700623 565.066650,198.777420 568.102539,202.418304 
	C564.980225,204.906494 562.184204,208.228409 558.823120,208.962250 
	C550.115112,210.863495 541.161804,212.656845 532.300171,212.687119 
	C386.349030,213.186188 240.396881,213.398499 94.445007,213.694305 
	C63.296593,213.757446 32.148331,213.896133 1.000000,214.000000 
M43.329967,179.334015 
	C43.888443,179.214691 44.446915,179.095383 45.816914,178.754242 
	C47.208775,178.828537 48.600639,178.902832 50.639114,179.489258 
	C55.096333,179.317551 59.553547,179.145828 64.656471,178.756073 
	C65.099251,178.826782 65.542023,178.897476 66.635849,179.488953 
	C88.306259,179.608521 109.976822,179.789490 131.646790,179.734390 
	C133.435272,179.729843 135.219666,178.123718 137.736404,176.947220 
	C150.714310,174.392319 162.481689,168.917603 173.079849,161.214706 
	C207.434570,136.245132 226.665100,103.318916 223.977905,59.902451 
	C222.815079,41.114758 214.713196,25.259594 198.730637,14.323912 
	C186.789062,6.153176 173.000519,4.004874 159.014679,3.756641 
	C135.697800,3.342791 112.369148,3.592279 89.045456,3.563224 
	C86.787788,3.560412 84.530121,3.562848 81.362755,3.562848 
	C84.928917,8.752865 88.247612,12.902434 90.751595,17.496099 
	C92.132195,20.028881 93.199837,23.537310 92.616364,26.215431 
	C83.184807,69.505875 73.491417,112.739479 63.732086,155.957672 
	C63.251099,158.087662 61.984837,160.306229 60.462513,161.883484 
	C56.492947,165.996277 52.177612,169.775330 47.481018,173.852692 
	C46.858501,174.495438 46.235985,175.138184 45.121395,175.957016 
	C44.753819,176.321945 44.386242,176.686859 43.575043,177.067322 
	C43.384041,177.697113 43.193043,178.326889 43.329967,179.334015 
M284.293945,56.045067 
	C270.442230,60.394421 256.590546,64.743774 242.218201,69.256607 
	C245.532745,73.706795 248.233673,77.711449 251.337341,81.374901 
	C253.627167,84.077759 253.968491,86.697388 253.211746,90.076111 
	C248.340591,111.824593 243.761856,133.639114 238.785385,155.362854 
	C238.097885,158.364014 236.185501,161.390121 234.066345,163.692383 
	C230.002945,168.106903 225.384033,172.010101 220.480301,176.608643 
	C242.783234,176.608643 264.102783,176.608643 286.110809,176.608643 
	C282.657318,171.961121 279.331726,168.027771 276.683105,163.681870 
	C275.446655,161.653122 274.719543,158.679016 275.140076,156.386246 
	C276.880463,146.897385 279.152557,137.506195 281.220551,128.077225 
	C286.706268,103.064690 292.187408,78.051155 297.759521,52.389877 
	C296.996674,52.513748 296.233795,52.637615 294.819794,52.790905 
	C294.204651,52.994560 293.589508,53.198215 292.483887,53.350296 
	C292.062653,53.594280 291.641449,53.838261 290.406921,54.138454 
	C288.883148,54.695515 287.359344,55.252575 285.556091,55.649555 
	C285.310638,55.665768 285.149445,55.790741 284.293945,56.045067 
M369.901520,72.899933 
	C369.901520,72.899933 369.654053,72.645691 369.647278,71.839905 
	C371.021515,65.246536 372.395752,58.653168 373.949219,51.199947 
	C354.692535,57.249073 336.199402,63.058338 317.400269,68.963730 
	C320.464417,73.342812 323.211792,77.269226 325.975189,81.956802 
	C324.257202,85.201324 322.836182,88.655136 320.738342,91.631966 
	C318.607849,94.655106 316.112183,98.410805 319.133148,100.842613 
	C322.683563,103.700615 323.341461,106.190292 322.221832,110.048592 
	C322.066101,110.585258 322.925903,111.416611 323.358307,112.939636 
	C320.295044,126.929611 317.063507,140.886215 314.277771,154.931229 
	C313.507324,158.815567 311.854706,161.585861 308.920502,164.057602 
	C304.323395,167.930161 299.963226,172.083954 294.873688,176.687592 
	C317.784576,176.687592 339.513550,176.687592 362.002502,176.687592 
	C358.767029,172.351334 356.079346,168.402786 353.021210,164.765686 
	C350.772705,162.091461 350.188477,159.461792 350.955627,156.055435 
	C355.083221,137.728485 359.022491,119.359192 363.079498,101.016167 
	C363.395142,99.589050 363.721802,97.796432 364.708618,96.942589 
	C374.622437,88.364754 384.675446,79.947868 394.860596,71.340912 
	C402.605347,81.457535 409.941162,91.039978 417.942139,101.491310 
	C421.607941,84.747063 425.037659,69.081161 428.726898,52.229897 
	C422.573883,51.655930 417.317871,50.436016 412.189697,50.839741 
	C401.635193,51.670677 392.425751,56.299519 384.096069,62.760082 
	C379.515137,66.313103 374.801849,69.695534 369.901520,72.899933 
M632.987183,144.437927 
	C639.384399,167.137482 658.193970,181.970963 682.763855,182.782242 
	C718.366089,183.957809 744.228882,167.266174 762.227295,137.531525 
	C770.912537,123.182930 774.803650,107.531776 771.476807,90.633698 
	C765.876587,62.188362 738.604919,45.845425 708.608459,49.547436 
	C684.347717,52.541580 664.487366,64.298256 649.245605,83.119026 
	C635.032349,100.669846 628.139771,120.701248 632.987183,144.437927 
M481.255554,54.778736 
	C466.252533,59.522598 451.249542,64.266457 435.919464,69.113731 
	C439.099518,73.486893 441.729675,77.561844 444.836578,81.233376 
	C447.381622,84.240974 447.704529,87.253021 446.879608,90.917015 
	C442.165588,111.855850 437.494080,132.805405 433.032135,153.798935 
	C432.087677,158.242538 430.313049,161.727173 426.763519,164.651703 
	C422.411682,168.237274 418.468079,172.318283 413.958679,176.550476 
	C436.485107,176.550476 458.003540,176.550476 480.131531,176.550476 
	C476.735138,172.019882 473.400970,168.247131 470.910889,163.981628 
	C469.553528,161.656418 468.658234,158.288086 469.202911,155.742920 
	C476.383575,122.188271 483.861694,88.697304 491.240814,55.184990 
	C491.464294,54.169971 491.421509,53.096321 491.542816,51.535843 
	C487.993530,52.631233 484.994751,53.556725 481.255554,54.778736 
M467.608215,39.159252 
	C481.331238,46.966167 499.261963,32.821747 498.734985,18.551207 
	C498.407837,9.691793 491.418976,3.493048 482.535431,4.039040 
	C472.743164,4.640882 462.926788,13.022118 460.978577,22.629889 
	C459.651215,29.176014 461.094452,34.827808 467.608215,39.159252 
M302.265778,29.621307 
	C308.862946,17.375006 304.021118,5.376395 291.946075,4.048023 
	C280.286102,2.765312 267.532135,14.033329 267.293579,25.828299 
	C267.098389,35.478558 273.646271,41.913860 283.290314,41.296394 
	C291.303467,40.783352 297.341187,36.729759 302.265778,29.621307 
z"/>
<path fill="#F9FAFC" opacity="1.000000" stroke="none" 
	d="
M515.821411,76.002541 
	C530.637024,60.974232 549.155334,55.165211 569.669861,54.912758 
	C591.159851,54.648296 612.655640,54.853439 634.148865,54.853340 
	C636.581543,54.853329 639.014282,54.853340 642.706421,54.853340 
	C635.362793,61.481930 628.862671,67.079559 622.744751,73.067574 
	C621.280029,74.501122 620.114197,77.413223 620.468567,79.340477 
	C622.666443,91.291718 618.733765,101.125328 610.370300,109.235870 
	C596.005920,123.165764 578.128418,128.678085 558.591858,129.713623 
	C554.788330,129.915222 550.964905,129.742630 546.841736,129.742630 
	C545.968384,133.488525 545.264648,137.055771 544.285645,140.545822 
	C543.374878,143.793045 544.259338,144.871933 547.756775,145.178131 
	C556.951538,145.983124 566.187561,146.836594 575.246521,148.530075 
	C584.532959,150.266098 593.130066,154.024490 599.480408,161.483276 
	C609.450256,173.193344 608.870667,190.708466 597.555359,205.189484 
	C586.093323,219.858383 570.311890,227.123825 552.248657,229.942184 
	C549.125732,230.429459 545.968567,230.696991 541.940674,231.123047 
	C537.727722,231.254303 534.401367,231.386124 531.074768,231.394180 
	C471.166351,231.539337 411.257904,231.660843 351.349518,231.806396 
	C318.903656,231.885239 286.457886,231.999680 253.550552,232.004959 
	C229.730209,231.986221 206.371399,232.060593 182.550629,232.046631 
	C165.399170,232.017700 148.709656,232.077103 131.557190,232.050323 
	C113.068893,232.025009 95.043549,232.085907 76.554642,232.065231 
	C51.060726,231.989105 26.030363,231.994553 1.000000,232.000000 
	C1.000000,226.311966 1.000000,220.623917 1.000000,214.467941 
	C32.148331,213.896133 63.296593,213.757446 94.445007,213.694305 
	C240.396881,213.398499 386.349030,213.186188 532.300171,212.687119 
	C541.161804,212.656845 550.115112,210.863495 558.823120,208.962250 
	C562.184204,208.228409 564.980225,204.906494 568.452515,202.334274 
	C574.662720,194.645309 573.249084,185.640961 565.256104,181.362000 
	C562.142151,179.694962 558.430908,179.143585 554.593750,177.929871 
	C551.067932,177.540115 547.942200,177.137680 544.811890,177.098953 
	C533.557373,176.959702 522.301331,176.943268 511.045898,176.880417 
	C511.106964,176.458862 511.168030,176.037323 511.232422,174.943420 
	C512.513367,169.180725 513.790955,164.090408 515.068542,159.000076 
	C515.075134,158.311798 515.081787,157.623520 515.376282,156.477966 
	C515.798584,155.678482 515.933044,155.336258 516.067505,154.994049 
	C516.079712,154.266006 516.091858,153.537979 516.495117,152.296448 
	C517.979187,146.877182 519.072205,141.971420 520.165161,137.065643 
	C520.261658,136.931641 520.392639,136.810822 520.449585,136.661728 
	C523.300110,129.196152 524.564026,122.174065 515.698853,117.544952 
	C514.469666,116.903099 513.696045,115.388672 512.346924,113.748550 
	C511.067810,111.296913 510.011719,109.428352 509.262878,107.443863 
	C505.640106,97.842796 508.586945,88.934067 512.286926,80.123642 
	C512.819092,79.639893 513.351196,79.156143 514.229370,78.281357 
	C514.990784,77.261055 515.406067,76.631798 515.821411,76.002541 
M545.555176,94.283531 
	C545.377014,95.428673 545.082825,96.569473 545.039856,97.719666 
	C544.785828,104.511925 546.004456,110.888847 552.420959,114.540932 
	C559.157471,118.375183 565.754822,116.590508 571.509399,112.193321 
	C580.314148,105.465431 583.885254,96.046272 584.101624,85.213806 
	C584.231018,78.737366 582.806702,72.793762 576.426086,69.664429 
	C569.532227,66.283356 563.051697,68.062454 557.383423,72.626526 
	C550.774048,77.948418 547.160217,85.130333 545.555176,94.283531 
z"/>
<path fill="#003171" opacity="1.000000" stroke="none" 
	d="
M254.012070,232.098053 
	C286.457886,231.999680 318.903656,231.885239 351.349518,231.806396 
	C411.257904,231.660843 471.166351,231.539337 531.074768,231.394180 
	C534.401367,231.386124 537.727722,231.254303 541.516235,231.244781 
	C541.981079,231.685120 541.983826,232.060760 541.993286,232.718201 
	C446.312439,233.000000 350.624878,233.000000 254.471161,232.774506 
	C254.005005,232.549026 254.012070,232.098068 254.012070,232.098053 
z"/>
<path fill="#12437D" opacity="1.000000" stroke="none" 
	d="
M1.000000,45.468658 
	C1.993566,46.020420 3.861861,47.051025 3.850112,48.059734 
	C3.659398,64.433975 3.240344,80.805702 2.809937,97.176338 
	C2.796090,97.703003 2.114208,98.212112 1.371872,98.864700 
	C1.000000,81.312439 1.000000,63.624878 1.000000,45.468658 
z"/>
<path fill="#4F749F" opacity="1.000000" stroke="none" 
	d="
M1.000000,232.500000 
	C26.030363,231.994553 51.060726,231.989105 76.549835,232.278519 
	C77.008583,232.573380 77.000000,233.000000 77.000000,233.000000 
	C51.666668,233.000000 26.333334,233.000000 1.000000,232.500000 
z"/>
<path fill="#09427C" opacity="1.000000" stroke="none" 
	d="
M253.550552,232.004974 
	C254.012070,232.098068 254.005005,232.549026 254.002502,232.774506 
	C230.645767,233.000000 207.291550,233.000000 183.470795,232.783722 
	C183.004257,232.567444 183.012573,232.134964 183.012573,232.134964 
	C206.371399,232.060593 229.730209,231.986221 253.550552,232.004974 
z"/>
<path fill="#3B6694" opacity="1.000000" stroke="none" 
	d="
M77.468658,233.000000 
	C77.000000,233.000000 77.008583,232.573380 77.013397,232.360092 
	C95.043549,232.085907 113.068893,232.025009 131.550995,232.266144 
	C132.007767,232.568192 132.000000,233.000000 132.000000,233.000000 
	C113.979103,233.000000 95.958214,233.000000 77.468658,233.000000 
z"/>
<path fill="#245185" opacity="1.000000" stroke="none" 
	d="
M132.468658,233.000000 
	C132.000000,233.000000 132.007767,232.568192 132.013962,232.352356 
	C148.709656,232.077103 165.399170,232.017700 182.550629,232.046631 
	C183.012573,232.134964 183.004257,232.567444 183.002136,232.783722 
	C166.312439,233.000000 149.624878,233.000000 132.468658,233.000000 
z"/>
<path fill="#FBFCFD" opacity="1.000000" stroke="none" 
	d="
M49.992504,178.977142 
	C48.600639,178.902832 47.208775,178.828537 45.170189,178.756927 
	C44.357010,178.702164 44.190548,178.644730 44.057098,178.332306 
	C44.066299,177.735489 44.042484,177.393631 44.018665,177.051788 
	C44.386242,176.686859 44.753819,176.321945 45.715115,176.024902 
	C47.567398,176.339661 48.825962,176.586517 50.084530,176.833389 
	C50.260242,176.440811 50.435955,176.048218 50.611668,175.655640 
	C49.741169,174.999588 48.870674,174.343536 48.000183,173.687485 
	C52.177612,169.775330 56.492947,165.996277 60.462513,161.883484 
	C61.984837,160.306229 63.251099,158.087662 63.732086,155.957672 
	C73.491417,112.739479 83.184807,69.505875 92.616364,26.215431 
	C93.199837,23.537310 92.132195,20.028881 90.751595,17.496099 
	C88.247612,12.902434 84.928917,8.752865 81.362755,3.562848 
	C84.530121,3.562848 86.787788,3.560412 89.045456,3.563224 
	C112.369148,3.592279 135.697800,3.342791 159.014679,3.756641 
	C173.000519,4.004874 186.789062,6.153176 198.730637,14.323912 
	C214.713196,25.259594 222.815079,41.114758 223.977905,59.902451 
	C226.665100,103.318916 207.434570,136.245132 173.079849,161.214706 
	C162.481689,168.917603 150.714310,174.392319 136.985748,177.068115 
	C134.151428,177.438904 132.067780,177.688828 129.849121,177.760727 
	C129.121231,177.769775 128.528336,177.956818 127.502533,178.322693 
	C124.588989,178.578751 122.108643,178.711243 119.627663,178.724396 
	C101.746780,178.819214 83.865768,178.889862 65.984802,178.968170 
	C65.542023,178.897476 65.099251,178.826782 63.875977,178.771820 
	C58.727825,178.850739 54.360165,178.913925 49.992504,178.977142 
M119.779030,159.726807 
	C122.879616,159.233368 125.980209,158.739944 129.848099,158.233383 
	C135.776810,154.986008 142.349869,152.531311 147.509186,148.337433 
	C161.099335,137.290329 168.731918,122.148392 174.351501,105.871986 
	C180.802979,87.185997 184.031723,68.209183 180.042496,48.481281 
	C176.611847,31.515690 165.315948,22.080950 148.211716,22.056513 
	C144.047440,22.050564 139.865189,22.306164 135.724106,21.998606 
	C131.935257,21.717203 130.332535,22.745461 129.504990,26.823071 
	C125.671516,45.712067 121.352684,64.502197 117.254906,83.338020 
	C112.132668,106.882881 107.056602,130.437805 101.618141,154.589935 
	C101.297325,156.237579 100.976509,157.885208 100.656494,159.528763 
	C105.239655,159.528763 109.143112,159.528763 113.879677,159.690979 
	C115.570892,159.623657 117.262115,159.556335 119.779030,159.726807 
z"/>
<path fill="#FAFBFC" opacity="1.000000" stroke="none" 
	d="
M632.908630,144.030914 
	C628.139771,120.701248 635.032349,100.669846 649.245605,83.119026 
	C664.487366,64.298256 684.347717,52.541580 708.608459,49.547436 
	C738.604919,45.845425 765.876587,62.188362 771.476807,90.633698 
	C774.803650,107.531776 770.912537,123.182930 762.227295,137.531525 
	C744.228882,167.266174 718.366089,183.957809 682.763855,182.782242 
	C658.193970,181.970963 639.384399,167.137482 632.908630,144.030914 
M684.699341,88.308601 
	C681.030151,101.084869 676.537781,113.699440 673.985046,126.695015 
	C672.319702,135.172760 672.358948,144.366318 673.612610,152.950363 
	C675.677734,167.090698 688.886475,173.024246 701.022095,165.389679 
	C706.450195,161.974808 711.309509,156.797089 714.832764,151.382126 
	C723.604370,137.900482 727.689758,122.458366 729.784546,106.714462 
	C731.065063,97.090538 731.494263,87.099998 730.427490,77.482452 
	C729.148499,65.951202 718.765869,60.002407 707.875366,64.036293 
	C702.802734,65.915230 697.928528,69.474609 694.162598,73.416885 
	C690.341248,77.417152 687.996460,82.827980 684.699341,88.308601 
z"/>
<path fill="#FAFBFC" opacity="1.000000" stroke="none" 
	d="
M325.959198,81.195641 
	C323.211792,77.269226 320.464417,73.342812 317.400269,68.963730 
	C336.199402,63.058338 354.692535,57.249073 373.949219,51.199947 
	C372.395752,58.653168 371.021515,65.246536 369.485046,72.401352 
	C369.400726,73.227165 369.478577,73.491539 369.556458,73.755913 
	C369.753723,73.555573 369.950989,73.355232 370.148254,73.154884 
	C374.801849,69.695534 379.515137,66.313103 384.096069,62.760082 
	C392.425751,56.299519 401.635193,51.670677 412.189697,50.839741 
	C417.317871,50.436016 422.573883,51.655930 428.726898,52.229897 
	C425.037659,69.081161 421.607941,84.747063 417.942139,101.491310 
	C409.941162,91.039978 402.605347,81.457535 394.860596,71.340912 
	C384.675446,79.947868 374.622437,88.364754 364.708618,96.942589 
	C363.721802,97.796432 363.395142,99.589050 363.079498,101.016167 
	C359.022491,119.359192 355.083221,137.728485 350.955627,156.055435 
	C350.188477,159.461792 350.772705,162.091461 353.021210,164.765686 
	C356.079346,168.402786 358.767029,172.351334 362.002502,176.687592 
	C339.513550,176.687592 317.784576,176.687592 294.873688,176.687592 
	C299.963226,172.083954 304.323395,167.930161 308.920502,164.057602 
	C311.854706,161.585861 313.507324,158.815567 314.277771,154.931229 
	C317.063507,140.886215 320.295044,126.929611 323.538666,112.218254 
	C325.233490,104.530304 326.638092,97.537277 328.307098,90.607933 
	C329.188782,86.947258 328.589294,83.873238 325.959198,81.195641 
z"/>
<path fill="#F9FAFC" opacity="1.000000" stroke="none" 
	d="
M481.625763,54.630478 
	C484.994751,53.556725 487.993530,52.631233 491.542816,51.535843 
	C491.421509,53.096321 491.464294,54.169971 491.240814,55.184990 
	C483.861694,88.697304 476.383575,122.188271 469.202911,155.742920 
	C468.658234,158.288086 469.553528,161.656418 470.910889,163.981628 
	C473.400970,168.247131 476.735138,172.019882 480.131531,176.550476 
	C458.003540,176.550476 436.485107,176.550476 413.958679,176.550476 
	C418.468079,172.318283 422.411682,168.237274 426.763519,164.651703 
	C430.313049,161.727173 432.087677,158.242538 433.032135,153.798935 
	C437.494080,132.805405 442.165588,111.855850 446.879608,90.917015 
	C447.704529,87.253021 447.381622,84.240974 444.836578,81.233376 
	C441.729675,77.561844 439.099518,73.486893 435.919464,69.113731 
	C451.249542,64.266457 466.252533,59.522598 481.625763,54.630478 
z"/>
<path fill="#F9FBFC" opacity="1.000000" stroke="none" 
	d="
M292.974365,53.401871 
	C293.589508,53.198215 294.204651,52.994560 295.508331,52.852295 
	C296.688049,52.955132 297.179230,52.996582 297.670410,53.038029 
	C292.187408,78.051155 286.706268,103.064690 281.220551,128.077225 
	C279.152557,137.506195 276.880463,146.897385 275.140076,156.386246 
	C274.719543,158.679016 275.446655,161.653122 276.683105,163.681870 
	C279.331726,168.027771 282.657318,171.961121 286.110809,176.608643 
	C264.102783,176.608643 242.783234,176.608643 220.480301,176.608643 
	C225.384033,172.010101 230.002945,168.106903 234.066345,163.692383 
	C236.185501,161.390121 238.097885,158.364014 238.785385,155.362854 
	C243.761856,133.639114 248.340591,111.824593 253.211746,90.076111 
	C253.968491,86.697388 253.627167,84.077759 251.337341,81.374901 
	C248.233673,77.711449 245.532745,73.706795 242.218201,69.256607 
	C256.590546,64.743774 270.442230,60.394421 284.821960,56.054871 
	C285.548004,56.048615 285.709900,55.963608 285.835571,55.809639 
	C287.359344,55.252575 288.883148,54.695515 291.062805,54.121338 
	C292.137238,53.870110 292.555817,53.635990 292.974365,53.401871 
z"/>
<path fill="#F8F9FB" opacity="1.000000" stroke="none" 
	d="
M467.268188,38.979965 
	C461.094452,34.827808 459.651215,29.176014 460.978577,22.629889 
	C462.926788,13.022118 472.743164,4.640882 482.535431,4.039040 
	C491.418976,3.493048 498.407837,9.691793 498.734985,18.551207 
	C499.261963,32.821747 481.331238,46.966167 467.268188,38.979965 
z"/>
<path fill="#F9FAFC" opacity="1.000000" stroke="none" 
	d="
M302.057739,29.923397 
	C297.341187,36.729759 291.303467,40.783352 283.290314,41.296394 
	C273.646271,41.913860 267.098389,35.478558 267.293579,25.828299 
	C267.532135,14.033329 280.286102,2.765312 291.946075,4.048023 
	C304.021118,5.376395 308.862946,17.375006 302.057739,29.923397 
z"/>
<path fill="#0A3F77" opacity="1.000000" stroke="none" 
	d="
M554.991760,178.084045 
	C558.430908,179.143585 562.142151,179.694962 565.256104,181.362000 
	C573.249084,185.640961 574.662720,194.645309 568.521484,201.988892 
	C565.066650,198.777420 561.662231,195.700623 559.013489,192.072220 
	C558.036499,190.733841 558.268433,187.876129 558.950378,186.094681 
	C560.421326,182.252029 559.579529,180.146591 555.242310,178.974304 
	C554.979858,178.516571 554.991760,178.084045 554.991760,178.084045 
z"/>
<path fill="#104379" opacity="1.000000" stroke="none" 
	d="
M511.905457,80.107483 
	C508.586945,88.934067 505.640106,97.842796 509.262878,107.443863 
	C510.011719,109.428352 511.067810,111.296913 512.063293,113.577255 
	C504.925568,112.143227 504.884003,111.913406 505.816284,104.498741 
	C506.332886,100.390144 506.524200,96.405128 502.866211,92.991364 
	C501.688446,91.892265 501.503815,87.798637 502.571808,86.614738 
	C504.992096,83.931709 508.473816,82.206169 511.905457,80.107483 
z"/>
<path fill="#0B3E74" opacity="1.000000" stroke="none" 
	d="
M325.967194,81.576218 
	C328.589294,83.873238 329.188782,86.947258 328.307098,90.607933 
	C326.638092,97.537277 325.233490,104.530304 323.517303,111.804214 
	C322.925903,111.416611 322.066101,110.585258 322.221832,110.048592 
	C323.341461,106.190292 322.683563,103.700615 319.133148,100.842613 
	C316.112183,98.410805 318.607849,94.655106 320.738342,91.631966 
	C322.836182,88.655136 324.257202,85.201324 325.967194,81.576218 
z"/>
<path fill="#003171" opacity="1.000000" stroke="none" 
	d="
M554.593750,177.929871 
	C554.991760,178.084045 554.979858,178.516571 554.977539,178.732254 
	C541.898132,178.959518 528.820618,179.014175 515.744202,178.923294 
	C514.259521,178.912964 512.780579,178.084610 511.172424,177.257996 
	C522.301331,176.943268 533.557373,176.959702 544.811890,177.098953 
	C547.942200,177.137680 551.067932,177.540115 554.593750,177.929871 
z"/>
<path fill="#003171" opacity="1.000000" stroke="none" 
	d="
M129.984131,177.938736 
	C132.067780,177.688828 134.151428,177.438904 136.620514,177.225372 
	C135.219666,178.123718 133.435272,179.729843 131.646790,179.734390 
	C109.976822,179.789490 88.306259,179.608521 66.310326,179.228561 
	C83.865768,178.889862 101.746780,178.819214 119.627663,178.724396 
	C122.108643,178.711243 124.588989,178.578751 127.756546,178.427216 
	C128.957016,178.214874 129.470566,178.076797 129.984131,177.938736 
z"/>
<path fill="#0B3E74" opacity="1.000000" stroke="none" 
	d="
M514.730286,159.086151 
	C513.790955,164.090408 512.513367,169.180725 511.144714,174.635803 
	C505.170898,169.497131 505.288300,167.429245 511.563995,162.463974 
	C512.677673,161.582886 513.457886,160.280228 514.730286,159.086151 
z"/>
<path fill="#0B3E74" opacity="1.000000" stroke="none" 
	d="
M519.819458,137.137695 
	C519.072205,141.971420 517.979187,146.877182 516.547607,151.932251 
	C512.252808,148.824753 512.077026,145.873001 515.424438,142.360992 
	C516.924561,140.787186 518.132996,138.935379 519.819458,137.137695 
z"/>
<path fill="#003171" opacity="1.000000" stroke="none" 
	d="
M50.315811,179.233185 
	C54.360165,178.913925 58.727825,178.850739 63.553123,178.880829 
	C59.553547,179.145828 55.096333,179.317551 50.315811,179.233185 
z"/>
<path fill="#E2E9EF" opacity="1.000000" stroke="none" 
	d="
M47.740601,173.770081 
	C48.870674,174.343536 49.741169,174.999588 50.611668,175.655640 
	C50.435955,176.048218 50.260242,176.440811 50.084530,176.833389 
	C48.825962,176.586517 47.567398,176.339661 45.961151,175.936859 
	C46.235985,175.138184 46.858501,174.495438 47.740601,173.770081 
z"/>
<path fill="#E2E9EF" opacity="1.000000" stroke="none" 
	d="
M43.796852,177.059555 
	C44.042484,177.393631 44.066299,177.735489 43.814838,178.461319 
	C43.360382,178.882446 43.181210,178.919571 43.002045,178.956680 
	C43.193043,178.326889 43.384041,177.697113 43.796852,177.059555 
z"/>
<path fill="#104379" opacity="1.000000" stroke="none" 
	d="
M515.526123,76.086548 
	C515.406067,76.631798 514.990784,77.261055 514.319336,78.021698 
	C514.452393,77.492233 514.841614,76.831398 515.526123,76.086548 
z"/>
<path fill="#E2E9EF" opacity="1.000000" stroke="none" 
	d="
M292.729126,53.376083 
	C292.555817,53.635990 292.137238,53.870110 291.469452,54.093231 
	C291.641449,53.838261 292.062653,53.594280 292.729126,53.376083 
z"/>
<path fill="#003171" opacity="1.000000" stroke="none" 
	d="
M43.166004,179.145355 
	C43.181210,178.919571 43.360382,178.882446 43.781822,178.716293 
	C44.190548,178.644730 44.357010,178.702164 44.764427,178.867828 
	C44.446915,179.095383 43.888443,179.214691 43.166004,179.145355 
z"/>
<path fill="#E2E9EF" opacity="1.000000" stroke="none" 
	d="
M297.714966,52.713951 
	C297.179230,52.996582 296.688049,52.955132 295.833923,52.837582 
	C296.233795,52.637615 296.996674,52.513748 297.714966,52.713951 
z"/>
<path fill="#0B3E74" opacity="1.000000" stroke="none" 
	d="
M515.856323,155.160309 
	C515.933044,155.336258 515.798584,155.678482 515.376953,156.129349 
	C515.274902,155.934189 515.460083,155.630386 515.856323,155.160309 
z"/>
<path fill="#E2E9EF" opacity="1.000000" stroke="none" 
	d="
M285.695831,55.729599 
	C285.709900,55.963608 285.548004,56.048615 285.211212,56.044571 
	C285.149445,55.790741 285.310638,55.665768 285.695831,55.729599 
z"/>
<path fill="#09427C" opacity="1.000000" stroke="none" 
	d="
M545.644714,93.864815 
	C547.160217,85.130333 550.774048,77.948418 557.383423,72.626526 
	C563.051697,68.062454 569.532227,66.283356 576.426086,69.664429 
	C582.806702,72.793762 584.231018,78.737366 584.101624,85.213806 
	C583.885254,96.046272 580.314148,105.465431 571.509399,112.193321 
	C565.754822,116.590508 559.157471,118.375183 552.420959,114.540932 
	C546.004456,110.888847 544.785828,104.511925 545.039856,97.719666 
	C545.082825,96.569473 545.377014,95.428673 545.644714,93.864815 
z"/>
<path fill="#06407B" opacity="1.000000" stroke="none" 
	d="
M101.960587,153.988373 
	C107.056602,130.437805 112.132668,106.882881 117.254906,83.338020 
	C121.352684,64.502197 125.671516,45.712067 129.504990,26.823071 
	C130.332535,22.745461 131.935257,21.717203 135.724106,21.998606 
	C139.865189,22.306164 144.047440,22.050564 148.211716,22.056513 
	C165.315948,22.080950 176.611847,31.515690 180.042496,48.481281 
	C184.031723,68.209183 180.802979,87.185997 174.351501,105.871986 
	C168.731918,122.148392 161.099335,137.290329 147.509186,148.337433 
	C142.349869,152.531311 135.776810,154.986008 129.188522,157.978485 
	C125.337074,158.312073 122.145203,158.900543 118.953331,159.489014 
	C117.262115,159.556335 115.570892,159.623657 113.277344,159.300644 
	C111.418289,158.635345 110.118462,158.005844 108.913017,158.152435 
	C105.406532,158.578827 103.240166,157.108627 101.960587,153.988373 
z"/>
<path fill="#245185" opacity="1.000000" stroke="none" 
	d="
M101.789368,154.289154 
	C103.240166,157.108627 105.406532,158.578827 108.913017,158.152435 
	C110.118462,158.005844 111.418289,158.635345 112.860794,159.219543 
	C109.143112,159.528763 105.239655,159.528763 100.656494,159.528763 
	C100.976509,157.885208 101.297325,156.237579 101.789368,154.289154 
z"/>
<path fill="#245185" opacity="1.000000" stroke="none" 
	d="
M119.366180,159.607910 
	C122.145203,158.900543 125.337074,158.312073 128.804871,157.985046 
	C125.980209,158.739944 122.879616,159.233368 119.366180,159.607910 
z"/>
<path fill="#E2E9EF" opacity="1.000000" stroke="none" 
	d="
M129.849121,177.760727 
	C129.470566,178.076797 128.957016,178.214874 128.189438,178.248413 
	C128.528336,177.956818 129.121231,177.769775 129.849121,177.760727 
z"/>
<path fill="#08427C" opacity="1.000000" stroke="none" 
	d="
M684.852173,87.964821 
	C687.996460,82.827980 690.341248,77.417152 694.162598,73.416885 
	C697.928528,69.474609 702.802734,65.915230 707.875366,64.036293 
	C718.765869,60.002407 729.148499,65.951202 730.427490,77.482452 
	C731.494263,87.099998 731.065063,97.090538 729.784546,106.714462 
	C727.689758,122.458366 723.604370,137.900482 714.832764,151.382126 
	C711.309509,156.797089 706.450195,161.974808 701.022095,165.389679 
	C688.886475,173.024246 675.677734,167.090698 673.612610,152.950363 
	C672.358948,144.366318 672.319702,135.172760 673.985046,126.695015 
	C676.537781,113.699440 681.030151,101.084869 684.852173,87.964821 
z"/>
<path fill="#07417C" opacity="1.000000" stroke="none" 
	d="
M370.024902,73.027412 
	C369.950989,73.355232 369.753723,73.555573 369.556458,73.755913 
	C369.478577,73.491539 369.400726,73.227165 369.488464,72.804245 
	C369.654053,72.645691 369.901520,72.899933 370.024902,73.027412 
z"/>
</svg>